<svg width="54" height="54" viewBox="0 0 54 54" fill="none" xmlns="http://www.w3.org/2000/svg">
<path d="M26.6709 0.0885925C26.5655 0.139217 26.4389 0.253124 26.3756 0.350155L26.2617 0.518906L26.2491 1.755L26.2364 2.98687L25.9748 3.01219C25.8314 3.02485 25.4306 3.05437 25.0805 3.07969C19.5286 3.48047 14.175 5.93156 10.1292 9.92672C5.90203 14.1033 3.42563 19.5328 3.03328 25.4686L2.98266 26.2406H1.86891C0.615939 26.2406 0.455626 26.2659 0.236251 26.4769C-0.122342 26.827 -0.0337485 27.4387 0.40922 27.6581C0.552657 27.7298 0.687657 27.7383 1.77609 27.7509L2.98266 27.7636L3.01219 28.2783C3.32016 33.6741 5.3325 38.648 8.87625 42.757C9.33609 43.2886 10.4752 44.4361 11.0531 44.9508C15.0862 48.5241 20.0855 50.6039 25.5023 50.9625C25.8525 50.9836 26.1605 51.0047 26.19 51.0047C26.228 51.0047 26.2406 51.2705 26.2406 52.1944C26.2406 53.2659 26.2491 53.4052 26.3208 53.5612C26.5739 54.1181 27.3333 54.1392 27.6412 53.5992C27.7383 53.4347 27.7383 53.4052 27.7383 52.2197V51.0089L28.0969 50.9836C29.8856 50.8612 30.6872 50.7558 32.0034 50.4731C37.8084 49.237 42.9258 45.8958 46.4442 41.0527C48.7729 37.8506 50.2917 34.0158 50.7937 30.0797C50.8908 29.3161 50.9625 28.4555 50.9625 28.0505V27.7636L52.2197 27.7509C53.4431 27.7383 53.4769 27.7341 53.6287 27.6412C54.1139 27.3375 54.0928 26.5908 53.5908 26.3419C53.4473 26.2702 53.3081 26.2617 52.1986 26.2491L50.9625 26.2364V25.9495C50.9625 25.7934 50.9414 25.418 50.9203 25.1184C50.5111 19.9462 48.465 15.1031 45.014 11.1586C40.8965 6.44625 34.8933 3.46359 28.7086 3.05859C28.5019 3.04594 28.1981 3.02485 28.0336 3.01219L27.7383 2.99109L27.7509 1.97016C27.7678 0.767815 27.7509 0.57375 27.6033 0.34594C27.3966 0.0253143 27.0042 -0.0843735 26.6709 0.0885925ZM26.2406 9.00281V12.0108L25.8736 12.0403C21.2794 12.3947 17.1577 14.7825 14.5758 18.5794C13.3861 20.3302 12.5845 22.2961 12.2133 24.3844C12.1247 24.8906 12.0234 25.7555 12.0234 26.017V26.2406H9.00703C6.62344 26.2406 5.99062 26.228 5.99062 26.1858C5.99062 25.9917 6.08766 24.8653 6.1425 24.4266C6.83437 18.7734 9.82125 13.6308 14.4028 10.1883C17.7652 7.66969 21.7392 6.23953 25.9875 6.02016C26.1141 6.01172 26.2237 6.00328 26.2322 5.99906C26.2364 5.99484 26.2406 7.34484 26.2406 9.00281ZM28.793 6.07922C33.7458 6.48 38.4623 8.71172 42.0019 12.323C44.8622 15.2466 46.7901 18.9 47.5833 22.8867C47.79 23.9203 47.9672 25.3631 47.9672 25.9959V26.2406H44.9761H41.985L41.9555 25.9537C41.8205 24.4519 41.6222 23.4816 41.2003 22.2117C39.3272 16.6008 34.2394 12.5845 28.3331 12.0614L27.7594 12.0108L27.7509 9.01547C27.7425 7.37016 27.7425 6.02438 27.7467 6.02016C27.7594 6.0075 28.2403 6.03281 28.793 6.07922ZM26.2406 17.7398V20.4609L26.1478 20.4778C26.093 20.4905 25.882 20.5327 25.6711 20.5706C24.9455 20.7056 24.0722 21.06 23.4183 21.4861C21.908 22.4691 20.8912 23.9794 20.5411 25.7681L20.4483 26.2406H17.7272H15.0061L15.0398 25.8905C15.2339 23.6208 16.1452 21.3595 17.6006 19.5202C18.0141 19.0012 18.9548 18.052 19.4484 17.6597C21.0684 16.373 22.8741 15.5503 24.8484 15.1917C25.2703 15.1158 25.8356 15.0441 26.1478 15.023L26.2406 15.0187V17.7398ZM28.7086 15.1284C33.0961 15.7317 36.8803 18.862 38.3273 23.0808C38.6395 23.9878 38.8547 24.9877 38.9306 25.8483L38.9644 26.2406H36.239H33.5095L33.4589 25.8989C33.21 24.2578 32.168 22.6125 30.7589 21.6211C30.0375 21.1191 29.0841 20.7098 28.2698 20.5622C28.0673 20.5242 27.8691 20.4905 27.8226 20.482C27.7383 20.4652 27.7383 20.4356 27.7509 17.7398L27.7594 15.0145L28.0041 15.0398C28.1348 15.0525 28.4555 15.0947 28.7086 15.1284ZM12.0234 27.983C12.0234 28.2445 12.1247 29.1094 12.2133 29.6156C13.2173 35.2561 17.3812 39.8714 22.8656 41.4197C23.9161 41.715 24.8147 41.8795 25.8736 41.9597L26.2406 41.9892V44.9887V47.9925L25.958 47.9798C22.0387 47.7942 18.1659 46.4695 14.9344 44.1956C10.3317 40.9641 7.18031 35.9733 6.26906 30.4805C6.15094 29.7759 5.99062 28.2403 5.99062 27.81C5.99062 27.772 6.62344 27.7594 9.00703 27.7594H12.0234V27.983ZM20.5411 28.2319C21.06 30.8644 23.123 32.9442 25.6922 33.4336C25.8905 33.4716 26.093 33.5095 26.1478 33.5222L26.2406 33.5391V36.2602C26.2406 37.7578 26.228 38.9812 26.2111 38.9812C25.7597 38.9686 24.6923 38.7956 24.0047 38.6184C20.4989 37.7198 17.5373 35.2392 16.0523 31.9486C15.5208 30.7673 15.1453 29.3541 15.0398 28.1053L15.0061 27.7594H17.7272H20.4483L20.5411 28.2319ZM38.9306 28.1475C38.7998 29.6662 38.2894 31.3411 37.5384 32.7164C36.0703 35.4037 33.653 37.4287 30.7673 38.3864C29.8814 38.6817 29.0376 38.8547 28.0041 38.9559L27.7594 38.9812L27.7509 36.2602C27.7383 33.5644 27.7383 33.5348 27.8226 33.518C27.8691 33.5095 28.0758 33.4716 28.2825 33.4336C30.0417 33.1087 31.6828 31.9359 32.6447 30.3328C33.0328 29.6831 33.3492 28.8141 33.4589 28.1011L33.5095 27.7594H36.239H38.9644L38.9306 28.1475ZM47.9672 27.9787C47.9672 28.1011 47.9461 28.4302 47.925 28.7086C47.4905 33.8091 45.3178 38.4328 41.677 42.0019C39.998 43.643 38.2387 44.8833 36.1336 45.9042C34.1634 46.8619 32.0751 47.4989 29.9489 47.7942C28.9533 47.9334 27.7594 48.022 27.7594 47.9545C27.7594 47.9377 27.7594 46.5877 27.7594 44.955V41.9892L28.3416 41.9386C29.0334 41.8753 29.9151 41.7277 30.607 41.5589C35.543 40.3439 39.593 36.6103 41.2003 31.7883C41.6222 30.5184 41.8205 29.5481 41.9555 28.042L41.985 27.7594H44.9761H47.9672V27.9787Z" fill="url(#paint0_linear)"/>
<defs>
<linearGradient id="paint0_linear" x1="26.9972" y1="53.9919" x2="26.9972" y2="0.00702286" gradientUnits="userSpaceOnUse">
<stop stop-color="#FF8F04"/>
<stop offset="1" stop-color="#FF8F04" stop-opacity="0"/>
</linearGradient>
</defs>
</svg>
